<svg width="16" height="16" viewBox="0 0 16 16" fill="none" xmlns="http://www.w3.org/2000/svg">
<path d="M2.66667 6H8.66667C9.40305 6 10 6.59695 10 7.33333V13.3333C10 14.0697 9.40305 14.6667 8.66667 14.6667H2.66667C1.93029 14.6667 1.33333 14.0697 1.33333 13.3333V7.33333C1.33333 6.59695 1.93029 6 2.66667 6Z" stroke="#7F87FC" stroke-width="2" stroke-linecap="round" stroke-linejoin="round"/>
<path d="M12.667 10H13.3337C13.6873 10 14.0264 9.85953 14.2765 9.60948C14.5265 9.35943 14.667 9.02029 14.667 8.66667V2.66667C14.667 2.31305 14.5265 1.97391 14.2765 1.72386C14.0264 1.47381 13.6873 1.33334 13.3337 1.33334H7.33366C6.98004 1.33334 6.6409 1.47381 6.39085 1.72386C6.1408 1.97391 6.00033 2.31305 6.00033 2.66667V3.33334" stroke="#7F87FC" stroke-width="2" stroke-linecap="round" stroke-linejoin="round"/>
</svg>
